<svg id="Capa_1" enable-background="new 0 0 511.903 511.903" height="512" viewBox="0 0 511.903 511.903" width="512" xmlns="http://www.w3.org/2000/svg"><g><path d="m209.39 301.224c-9.562-3.38-20.099-7.434-25.756-11.872-.372-.292-1.066-2.038-.579-4.628.234-1.241 1.307-5.382 5.301-6.585 10.004-3.013 14.625.84 15.462 1.657 5.809 5.896 15.298 5.973 21.202.167 5.907-5.809 5.986-15.306.177-21.212-4.089-4.158-10.042-7.93-17.432-10.017v-.831c0-8.284-6.716-15-15-15s-15 6.716-15 15v2.172c-27.028 9.821-33.247 46.726-12.646 62.884 9.047 7.096 21.818 12.148 34.272 16.551 7.434 2.627 8.191 7.958 7.517 11.966-.75 4.465-4.596 12.04-14.246 12.104-9.996.069-12.365-.304-19.677-5.087-6.933-4.535-16.229-2.592-20.764 4.341s-2.591 16.229 4.341 20.764c7.977 5.218 14.292 7.804 21.202 9.017v1.439c0 8.284 6.716 15 15 15s15-6.716 15-15v-3.135c36.345-13.14 41.161-65.721 1.626-79.695z"/><path d="m481.745 208.903c-34.423 0-129.79 0-163.904 0l-30.096-52.963v-56.497l38.366-77.732c3.652-7.304.791-16.188-6.438-19.986-7.142-3.755-15.963-1.178-19.975 5.79-.562.792-6.496 8.388-26.953 8.388-20.815 0-26.59-7.861-26.971-8.416-5.911-9.698-20.092-9.79-26.059 0-.38.554-6.155 8.416-26.97 8.416s-26.59-7.861-26.97-8.416c-5.911-9.697-20.091-9.792-26.06 0-.38.554-6.155 8.416-26.97 8.416-20.458 0-26.391-7.597-26.953-8.388-4.01-6.967-12.828-9.544-19.975-5.79-7.229 3.799-10.091 12.683-6.439 19.986l38.367 77.733v56.495c-46.368 81.598-64.758 113.938-65.03 114.484-30.189 60.375-20.882 132.931 23.571 183.734 31.555 36.063 77.135 57.746 125.054 57.746h300.405c8.284 0 15-6.716 15-15 0-4.835 0-268.319 0-273 0-8.285-6.716-15-15-15zm-354-98h130v34h-130zm24.998-75.301c8.228 5.406 20.942 10.3 40.001 10.3 19.055 0 31.769-4.893 39.999-10.3 13.668 8.98 31.754 11.25 47.879 10.004l-17.148 35.296h-141.459l-17.148-35.296c16.143 1.248 34.219-1.031 47.876-10.004zm51.407 446.301c-7.978 0-14.832 0-22.81 0-100.234 0-167.233-106.549-121.965-197.717l62.099-109.283h142.542c3.442 6.058 60.824 107.041 62.099 109.284 45.287 91.203-21.78 197.716-121.965 197.716zm262.595 0h-40.997c5.295-19.396 21.602-35.702 40.997-40.998zm0-71.702c-35.974 6.278-65.424 35.728-71.702 71.702h-95.658c67.084-46.917 90.469-137.322 53.389-211.481-.262-.526.792 1.35-17.886-31.519h60.155c6.278 35.974 35.728 64.424 71.702 70.702zm0-131.301c-19.396-5.295-35.702-20.602-40.997-39.998h40.997z"/></g></svg>